<svg width="176" height="73" viewBox="0 0 176 73" fill="none" xmlns="http://www.w3.org/2000/svg">
<path d="M54.45 13.1409C62.9343 8.72093 71.7125 4.93093 80.4306 2.39426C86.2571 0.700929 92.9752 -0.692405 99.0321 0.370929C104.959 1.41093 107.186 5.61093 105.506 11.2743C104 16.3443 101.523 21.0309 98.7115 25.7776C97.9536 27.0609 96.9352 27.2076 95.5562 27.0776C95.2535 27.0487 94.9997 26.9176 94.7949 26.6843C94.7057 26.5828 94.6514 26.4552 94.6399 26.3203C94.6285 26.1854 94.6606 26.0501 94.7315 25.9343C97.7878 20.9387 100.138 15.7398 101.783 10.3376C102.184 9.02649 102.223 7.59871 101.9 6.05426C100.718 0.407597 91.8833 1.90426 88.1036 2.78426C76.9347 5.38093 66.2767 9.95426 56.2731 15.3276C40.8536 23.6143 27.0213 33.7454 14.7762 45.7209C10.913 49.4976 6.85611 54.6643 5.07644 59.5209C3.6941 63.2876 4.99964 66.3309 8.56234 68.0376C10.4411 68.9398 12.2174 69.5498 13.8914 69.8676C15.267 70.1276 17.1079 70.3209 19.414 70.4476C21.3395 70.5543 23.117 70.5754 24.7464 70.5109C28.9068 70.3443 33.0638 70.2409 37.2075 69.9309C46.7681 69.2109 56.2708 67.4765 65.7157 64.7276C66.7842 64.4176 70.3669 63.7343 70.6641 65.0676C70.6849 65.1595 70.6698 65.2557 70.6219 65.3364C70.5741 65.4171 70.4971 65.476 70.407 65.5009C65.4319 66.9187 60.5002 68.1665 55.6119 69.2443C53.317 69.7509 51.1333 70.1676 49.0609 70.4943C38.0712 72.2232 27.0013 72.782 15.8513 72.1709C12.5524 71.9887 9.36369 71.2254 6.28515 69.8809C2.6323 68.2843 -0.0221906 65.4543 0.50203 61.2643C0.76247 59.1932 1.5015 57.1332 2.71911 55.0843C6.92289 48.0143 13.2135 42.1809 19.5843 36.7143C30.2891 27.5298 41.911 19.672 54.45 13.1409Z" fill="white"/>
<path d="M123.153 58.0843C121.26 59.601 116.679 63.2043 114.281 61.2043C113.395 60.4643 112.975 59.4376 113.019 58.1243C113.035 57.6954 112.88 57.6221 112.555 57.9043C111.453 58.8621 110.328 59.8498 109.179 60.8676C107.704 62.1743 106.198 63.161 104.181 63.2243C102.511 63.2776 101.668 62.451 101.65 60.7443C101.648 60.4887 101.688 60.2387 101.77 59.9943C101.782 59.9604 101.783 59.9237 101.773 59.8893C101.763 59.8549 101.742 59.8246 101.713 59.8027C101.685 59.7809 101.65 59.7686 101.614 59.7677C101.578 59.7668 101.543 59.7773 101.513 59.7976C100.186 60.6665 98.705 61.1443 97.0689 61.231C95.2057 61.3276 93.8701 60.1076 94.0103 58.2343C94.0326 57.9432 93.9302 57.8898 93.7032 58.0743C91.0387 60.2276 89.1254 62.0776 85.4592 61.5943C84.354 61.451 83.743 60.9243 83.4024 59.9076C83.3468 59.741 83.2499 59.7132 83.1119 59.8243C81.1241 61.4198 78.9771 62.3154 76.671 62.511C74.08 62.731 73.0182 60.1643 73.2218 58.021C73.3509 56.6721 73.6348 55.2932 74.0733 53.8843C74.908 51.2021 75.8786 48.5821 76.9849 46.0243C79.9699 39.1198 82.7179 32.5598 85.2288 26.3443C85.5961 25.4376 86.1994 25.0554 87.0386 25.1976C87.0764 25.2043 87.1131 25.2154 87.1487 25.231C87.9367 25.5465 88.1905 26.0421 87.91 26.7176C85.2656 33.0776 82.7558 39.281 80.3806 45.3276C79.0762 48.6476 77.9521 51.7143 77.0082 54.5276C76.6165 55.6987 76.3204 56.8676 76.1201 58.0343C75.8763 59.4676 76.9682 60.7043 78.4841 60.2043C80.6845 59.4743 83.5927 57.9876 84.945 55.9176C86.8082 53.0643 89.5372 50.871 93.1322 49.3376C94.1406 48.9076 96.4478 48.5976 97.3393 49.6176C97.8034 50.1443 98.3276 51.2876 97.7133 51.9176C97.4261 52.2132 97.0833 52.3298 96.6849 52.2676C95.7099 52.1176 95.4762 50.751 94.2608 51.2776C91.1733 52.6065 88.7793 54.9354 87.0786 58.2643C86.9451 58.5287 86.8816 58.8054 86.8883 59.0943C86.8905 59.2498 86.9707 59.3332 87.1287 59.3443C88.2773 59.4176 89.5829 58.3576 90.4143 57.6076C91.7788 56.3765 93.0565 55.2476 94.2474 54.221C95.2725 53.3343 97.9337 52.951 97.2325 55.281C96.9119 56.3343 96.3677 57.9276 96.7683 58.9943C96.789 59.0499 96.8224 59.0998 96.866 59.1398C96.9095 59.1798 96.9619 59.2087 97.0188 59.2243C98.8018 59.7076 100.708 58.2876 101.907 57.071C102.43 56.5398 102.864 55.8365 103.209 54.961C103.951 53.081 104.749 51.3398 105.603 49.7376C105.89 49.2021 106.318 49.0454 106.885 49.2676L107.052 49.3343C107.365 49.458 107.617 49.6997 107.752 50.0069C107.887 50.3141 107.895 50.6618 107.774 50.9743C106.861 53.3365 105.873 55.881 104.809 58.6076C104.604 59.1321 104.468 59.6865 104.401 60.271C104.394 60.3354 104.401 60.4006 104.421 60.4623C104.441 60.5239 104.474 60.5805 104.518 60.6282C104.562 60.6759 104.616 60.7136 104.676 60.7388C104.736 60.764 104.8 60.7761 104.865 60.7743C105.319 60.761 105.732 60.6154 106.104 60.3376C109.537 57.7676 112.492 54.031 115.403 50.761C116.378 49.6643 119.016 49.5743 118.278 51.791C117.517 54.0732 116.866 56.1321 116.325 57.9676C116.202 58.3765 116.213 58.7943 116.358 59.221C116.374 59.2659 116.402 59.3055 116.44 59.3356C116.478 59.3656 116.523 59.3848 116.572 59.391C117.019 59.4398 117.452 59.3565 117.871 59.141C119.772 58.1654 121.683 56.9354 123.604 55.451C124.709 54.5976 125.14 53.5143 126.014 52.5276C128.699 49.4943 132.345 48.5176 136.412 49.1876C137.367 49.3476 138.232 47.4843 138.633 46.7543C141.771 41.0298 144.949 35.2221 148.165 29.331C148.564 28.6021 149.029 27.8321 149.561 27.021C149.624 26.925 149.711 26.8489 149.811 26.801C150.286 26.5743 150.881 26.5065 151.598 26.5976C152.116 26.6643 152.312 26.9543 152.185 27.4676C152.054 28.0076 151.875 28.5154 151.648 28.991C147.425 37.8576 143.722 46.5098 140.539 54.9476C140.265 55.6721 140.023 56.4621 139.811 57.3176C139.521 58.501 140.462 59.0376 141.447 58.441C142.718 57.6743 143.881 56.8576 144.937 55.991C146.329 54.8476 146.93 53.4476 147.905 52.0743C148.399 51.381 149.011 51.1365 149.741 51.341C149.853 51.3721 149.956 51.4274 150.043 51.5028C150.131 51.5782 150.201 51.6719 150.248 51.7774C150.296 51.8829 150.319 51.9975 150.318 52.1133C150.316 52.2291 150.289 52.3432 150.239 52.4476C149.254 54.4876 148.032 56.6443 147.564 58.8876C147.551 58.949 147.551 59.0125 147.563 59.074C147.576 59.1356 147.6 59.194 147.636 59.2458C147.671 59.2975 147.717 59.3415 147.77 59.375C147.823 59.4086 147.883 59.431 147.945 59.441C149.651 59.711 152.299 58.3143 153.715 57.3576C155.064 56.4476 155.598 55.031 156.68 53.901C158.015 52.5121 159.661 51.2621 161.618 50.151C163.197 49.251 164.723 48.741 166.473 49.0243C166.932 49.0998 167.297 49.2932 167.568 49.6043C168.082 50.191 168.583 51.4076 167.815 52.0443C167.198 52.5576 166.463 52.2243 166.006 51.701C165.505 51.1232 164.849 51.0421 164.039 51.4576C160.791 53.1176 158.479 55.5643 157.104 58.7976C157.079 58.8566 157.069 58.9209 157.075 58.9847C157.08 59.0486 157.102 59.1101 157.137 59.164C157.172 59.2179 157.22 59.2625 157.277 59.2939C157.333 59.3253 157.396 59.3426 157.461 59.3443C158.576 59.371 159.792 58.3676 160.56 57.6776C161.828 56.5421 163.089 55.4287 164.343 54.3376C165.24 53.5554 166.122 53.3343 166.991 53.6743C167.536 53.8876 167.714 54.3365 167.525 55.021C167.214 56.1376 166.767 57.491 166.907 58.6076C166.96 59.0365 167.203 59.2732 167.635 59.3176C170.239 59.581 172.807 56.401 174.41 54.7343C174.519 54.6211 174.669 54.5552 174.827 54.551C175.228 54.5421 175.454 54.6521 175.505 54.881C175.643 55.501 175.539 56.0432 175.194 56.5076C173.268 59.101 170.35 61.2743 166.96 61.2076C165.204 61.1721 164.3 60.1754 164.249 58.2176C164.243 57.9176 164.125 57.8654 163.895 58.061C161.428 60.1743 159.511 61.931 156.002 61.641C155.05 61.561 153.952 61.1476 153.795 60.1043C153.789 60.0596 153.771 60.0174 153.743 59.9818C153.715 59.9462 153.678 59.9185 153.636 59.9013C153.594 59.8842 153.548 59.8782 153.503 59.884C153.457 59.8897 153.414 59.9071 153.377 59.9343C151.561 61.2743 147.351 62.951 145.321 61.2243C144.686 60.6843 144.726 59.8343 144.806 59.0643C144.829 58.8598 144.756 58.8176 144.589 58.9376C143.47 59.7398 142.419 60.291 141.437 60.591C139.885 61.0676 137.567 60.911 137.006 59.0743C136.596 57.7276 137.123 56.1843 137.504 54.8676C137.845 53.6965 137.611 53.5676 136.803 54.481C134.526 57.0576 132.402 59.7243 129.374 61.4776C127.824 62.3776 124.342 62.9643 123.55 60.5843C123.294 59.811 123.249 59.031 123.413 58.2443C123.474 57.9532 123.387 57.8998 123.153 58.0843ZM126.699 56.111C126.298 57.0143 125.761 59.061 126.295 60.001C126.383 60.1586 126.529 60.2761 126.702 60.3289C126.875 60.3817 127.062 60.3657 127.223 60.2843C128.085 59.851 128.838 59.3221 129.484 58.6976C131.269 56.9732 133.098 54.911 134.97 52.511C136.088 51.0776 133.881 50.3576 132.886 50.6443C130.019 51.471 127.957 53.2932 126.699 56.111Z" fill="white"/>
<path d="M94.3341 47.0844C93.6763 45.951 95.5929 42.9644 96.254 42.001C96.688 41.3677 97.2757 41.1577 98.017 41.371L98.2908 41.451C99.0854 41.6821 99.2134 42.1121 98.6747 42.741C97.5684 44.0344 96.53 45.3388 95.5595 46.6544C95.3992 46.8721 95.2033 47.0621 94.9718 47.2244C94.9219 47.2598 94.8652 47.2843 94.8051 47.2964C94.7451 47.3086 94.6831 47.308 94.6231 47.2949C94.5631 47.2817 94.5064 47.2562 94.4567 47.2199C94.4069 47.1837 94.3652 47.1375 94.3341 47.0844Z" fill="white"/>
<path d="M150.122 48.2443C149.938 47.2043 151.461 44.871 152.075 44.041C152.531 43.421 153.118 43.2543 153.835 43.541C154.007 43.6098 154.147 43.7385 154.231 43.9029C154.315 44.0673 154.335 44.2562 154.289 44.4343C153.988 45.6043 152.967 47.9243 151.678 48.351C151.306 48.4732 150.929 48.5477 150.546 48.5743C150.447 48.5816 150.349 48.5518 150.27 48.4909C150.192 48.4299 150.139 48.342 150.122 48.2443Z" fill="white"/>
</svg>
